<svg xmlns="http://www.w3.org/2000/svg" width="44" height="44" viewBox="0 0 44 44"><defs><style>.a{fill:#038896;}</style></defs><path class="a" d="M38.328,3.438H34.375V1.375a1.375,1.375,0,0,0-2.75,0V3.438H12.375V1.375a1.375,1.375,0,0,0-2.75,0V3.438H5.672A5.678,5.678,0,0,0,0,9.109V38.328A5.678,5.678,0,0,0,5.672,44H38.328A5.678,5.678,0,0,0,44,38.328V9.109A5.678,5.678,0,0,0,38.328,3.438ZM5.672,6.188H9.625V7.563a1.375,1.375,0,0,0,2.75,0V6.188h19.25V7.563a1.375,1.375,0,0,0,2.75,0V6.188h3.953A2.925,2.925,0,0,1,41.25,9.109v3.266H2.75V9.109A2.925,2.925,0,0,1,5.672,6.188ZM38.328,41.25H5.672A2.925,2.925,0,0,1,2.75,38.328v-23.2h38.5v23.2A2.925,2.925,0,0,1,38.328,41.25Z"/></svg>