<svg xmlns="http://www.w3.org/2000/svg" width="60.654" height="60.525" viewBox="0 0 60.654 60.525"><defs><style>.a{fill:#c5c5c5;stroke:#c5c5c5;stroke-width:0.5px;}</style></defs><g transform="translate(0.25 0.25)"><path class="a" d="M286.069,272.059c0-11.594-14.371-17.139-22.134-8.482a12.69,12.69,0,1,0,22.134,8.482Zm-12.711,10.909a10.917,10.917,0,1,1,7.313-19.04c7.328,6.574,2.857,19.04-7.313,19.04Zm0,0" transform="translate(-230.063 -228.885)"/><path class="a" d="M310.7,290.473a.888.888,0,0,0-.888.887v7.268h-5.947a.888.888,0,1,0,0,1.775H310.7a.888.888,0,0,0,.887-.887V291.36A.888.888,0,0,0,310.7,290.473Zm0,0" transform="translate(-267.389 -256.35)"/><path class="a" d="M69.042,49.09H44.074a2.452,2.452,0,0,0-2.449,2.45v8.7a2.452,2.452,0,0,0,2.449,2.449H69.042a2.452,2.452,0,0,0,2.449-2.449v-8.7a2.452,2.452,0,0,0-2.449-2.45Zm.673,11.153a.674.674,0,0,1-.673.675H44.074a.675.675,0,0,1-.673-.675v-8.7a.675.675,0,0,1,.673-.675H69.042a.674.674,0,0,1,.673.675Zm0,0" transform="translate(-36.736 -43.323)"/><path class="a" d="M95.536,80.563H75.1a.888.888,0,1,0,0,1.775H95.536a.888.888,0,0,0,0-1.775Zm0,0" transform="translate(-65.497 -71.098)"/><path class="a" d="M177.156,118.3h-3.323a.888.888,0,0,0,0,1.775h3.323a.888.888,0,0,0,0-1.775Zm0,0" transform="translate(-152.629 -104.404)"/><path class="a" d="M83.15,118.3H75.1a.888.888,0,1,0,0,1.775H83.15a.888.888,0,0,0,0-1.775Zm0,0" transform="translate(-65.497 -104.404)"/><path class="a" d="M95.536,228.953H75.1a.888.888,0,1,0,0,1.775H95.536a.888.888,0,0,0,0-1.775Zm0,0" transform="translate(-65.497 -202.057)"/><path class="a" d="M80.927,266.7H75.1a.888.888,0,1,0,0,1.775h5.824a.888.888,0,0,0,0-1.775Zm0,0" transform="translate(-65.497 -235.366)"/><path class="a" d="M75.1,379.119H89.727a.888.888,0,0,0,0-1.775H75.1a.888.888,0,1,0,0,1.775Zm0,0" transform="translate(-65.497 -333.016)"/><path class="a" d="M82.2,415.086H75.1a.888.888,0,1,0,0,1.775h7.1a.888.888,0,0,0,0-1.775Zm0,0" transform="translate(-65.497 -366.325)"/><path class="a" d="M171.22,415.086h-5.45a.888.888,0,1,0,0,1.775h5.45a.888.888,0,0,0,0-1.775Zm0,0" transform="translate(-145.514 -366.325)"/><path class="a" d="M54.558,30.638a16.805,16.805,0,0,0-14.914-3.9V2.855A2.858,2.858,0,0,0,36.789,0H2.855A2.858,2.858,0,0,0,0,2.855V57.146A2.858,2.858,0,0,0,2.855,60H36.789a2.843,2.843,0,0,0,1.832-.665,16.892,16.892,0,0,0,10.634-.416.887.887,0,1,0-.625-1.661A15.085,15.085,0,0,1,32.977,54.14c-9.842-9.273-3.365-26.034,10.356-26.034a15.062,15.062,0,0,1,8.276,27.632.887.887,0,1,0,.979,1.48,16.841,16.841,0,0,0,1.97-26.58ZM29.275,52.458H7.338a.675.675,0,0,1-.673-.675v-8.7a.675.675,0,0,1,.673-.675H26.5a16.853,16.853,0,0,0,2.78,10.052Zm3.7-22.582a16.919,16.919,0,0,0-4.4,5.15H7.338a.675.675,0,0,1-.673-.675v-8.7a.675.675,0,0,1,.673-.675H32.306a.674.674,0,0,1,.673.675Zm4.89-2.64a16.671,16.671,0,0,0-3.115,1.432V25.649a2.452,2.452,0,0,0-2.449-2.45H7.338a2.452,2.452,0,0,0-2.449,2.45v8.7A2.452,2.452,0,0,0,7.338,36.8H27.726a16.733,16.733,0,0,0-1.057,3.83H7.338a2.452,2.452,0,0,0-2.449,2.449v8.7a2.452,2.452,0,0,0,2.449,2.45H30.63a16.861,16.861,0,0,0,5.159,3.992H2.855a1.081,1.081,0,0,1-1.081-1.079V2.855A1.08,1.08,0,0,1,2.855,1.776H36.789A1.08,1.08,0,0,1,37.87,2.855Zm0,0"/></g></svg>