<?xml version="1.0" encoding="utf-8"?>
<!-- Generator: Adobe Illustrator 28.0.0, SVG Export Plug-In . SVG Version: 6.00 Build 0)  -->
<svg version="1.1" id="Layer_1" xmlns="http://www.w3.org/2000/svg" xmlns:xlink="http://www.w3.org/1999/xlink" x="0px" y="0px"
	 viewBox="0 0 26.4 30" style="enable-background:new 0 0 26.4 30;" xml:space="preserve">
<style type="text/css">
	.st0{fill:#FFFFFF;}
</style>
<g transform="translate(-31)">
	<g transform="translate(31)">
		<path class="st0" d="M23.7,3.5h-0.9V2.6c0-1.5-1.2-2.6-2.6-2.6H2.6C1.2,0,0,1.2,0,2.6v21.2c0,1.5,1.2,2.6,2.6,2.6h0.9v0.9
			c0,1.5,1.2,2.6,2.6,2.6h17.6c1.5,0,2.6-1.2,2.6-2.6V6.2C26.4,4.7,25.2,3.5,23.7,3.5z M4.3,6.8C3.8,7.3,3.5,7.9,3.5,8.6v16.1H2.6
			c-0.5,0-0.9-0.4-0.9-0.9V2.6c0-0.5,0.4-0.9,0.9-0.9h17.6c0.5,0,0.9,0.4,0.9,0.9v0.9H8.6c-0.7,0-1.4,0.3-1.9,0.8L4.3,6.8z M8.8,5.3
			v3.5H5.3V8.6c0-0.2,0.1-0.5,0.3-0.6L8,5.5c0.2-0.2,0.4-0.3,0.6-0.3C8.6,5.3,8.8,5.3,8.8,5.3z M24.6,27.4c0,0.5-0.4,0.9-0.9,0.9
			H6.2c-0.5,0-0.9-0.4-0.9-0.9V10.5h4.4c0.5,0,0.9-0.4,0.9-0.9v0V5.3h13.2c0.5,0,0.9,0.4,0.9,0.9L24.6,27.4z"/>
	</g>
	<g transform="translate(38.031 12.422)">
		<path class="st0" d="M14.9,0H0.9C0.4,0,0,0.4,0,0.9c0,0.5,0.4,0.9,0.9,0.9h14.1c0.5,0,0.9-0.4,0.9-0.9C15.8,0.4,15.4,0,14.9,0
			L14.9,0z"/>
	</g>
	<g transform="translate(38.031 15.938)">
		<path class="st0" d="M14.9,0H0.9C0.4,0,0,0.4,0,0.9c0,0.5,0.4,0.9,0.9,0.9h14.1c0.5,0,0.9-0.4,0.9-0.9C15.8,0.4,15.4,0,14.9,0
			L14.9,0z"/>
	</g>
	<g transform="translate(38.031 19.453)">
		<path class="st0" d="M14.9,0H0.9C0.4,0,0,0.4,0,0.9c0,0.5,0.4,0.9,0.9,0.9h14.1c0.5,0,0.9-0.4,0.9-0.9C15.8,0.4,15.4,0,14.9,0
			L14.9,0z"/>
	</g>
	<g transform="translate(38.031 22.969)">
		<path class="st0" d="M14.9,0H0.9C0.4,0,0,0.4,0,0.9c0,0.5,0.4,0.9,0.9,0.9h14.1c0.5,0,0.9-0.4,0.9-0.9C15.8,0.4,15.4,0,14.9,0
			L14.9,0z"/>
	</g>
</g>
</svg>
