<svg xmlns="http://www.w3.org/2000/svg" width="54.585" height="60" viewBox="0 0 54.585 60"><defs><style>.a{fill:#038896;}</style></defs><path class="a" d="M40.892,25.974V14.619a1.315,1.315,0,0,0-.362-.863L27.8.388A1.269,1.269,0,0,0,26.886,0H6.7A6.725,6.725,0,0,0,0,6.765V44.931a6.682,6.682,0,0,0,6.7,6.715H22.635A17.2,17.2,0,1,0,40.892,25.974ZM28.137,4.389l8.541,8.991h-5.54a3.02,3.02,0,0,1-3-3.014ZM6.7,49.146a4.19,4.19,0,0,1-4.2-4.214V6.765A4.224,4.224,0,0,1,6.7,2.5H25.636v7.866a5.513,5.513,0,0,0,5.5,5.515h7.253v9.766c-.375-.012-.675-.05-1-.05a17.449,17.449,0,0,0-11.4,4.3H10.1a1.25,1.25,0,1,0,0,2.5H23.66a19.9,19.9,0,0,0-2.2,3.877H10.1a1.251,1.251,0,0,0,0,2.5H20.646a17.162,17.162,0,0,0,.75,10.379H6.7Zm30.676,8.366A14.694,14.694,0,1,1,52.072,42.818,14.709,14.709,0,0,1,37.378,57.512Zm0,0"/><path class="a" d="M76.8,204.185H89.469a1.251,1.251,0,1,0,0-2.5H76.8a1.251,1.251,0,1,0,0,2.5Zm0,0" transform="translate(-66.697 -178.049)"/><path class="a" d="M248.09,277.331a9.272,9.272,0,0,0-5.64,1.95l.05-3.226A1.251,1.251,0,0,0,240,276l-.1,6.315a1.267,1.267,0,0,0,.362.9,1.217,1.217,0,0,0,.9.362h.137l6.015-.1a1.251,1.251,0,0,0-.025-2.5h-.025l-2.976.05a6.754,6.754,0,0,1,3.789-1.2,6.878,6.878,0,1,1,0,13.755,6.57,6.57,0,0,1-5-2.251,7.118,7.118,0,0,1-1.863-4.627,1.251,1.251,0,1,0-2.5,0,9.379,9.379,0,1,0,9.379-9.379Zm0,0" transform="translate(-210.737 -242.579)"/></svg>