<svg xmlns="http://www.w3.org/2000/svg" width="22.5" height="30" viewBox="0 0 22.5 30"><defs><style>.a{fill:#fff;}</style></defs><g transform="translate(-64)"><g transform="translate(67.751 11.25)"><path class="a" d="M135.249,192.283a.94.94,0,0,0-1.328,0l-3.086,3.088-1.211-1.213a.937.937,0,0,0-1.326,1.326l1.875,1.875a.928.928,0,0,0,.662.276.942.942,0,0,0,.664-.274l3.75-3.75A.938.938,0,0,0,135.249,192.283Z" transform="translate(-128.024 -192.008)"/></g><g transform="translate(67.751 18.75)"><path class="a" d="M135.249,320.283a.94.94,0,0,0-1.328,0l-3.086,3.088-1.211-1.211a.937.937,0,1,0-1.326,1.326l1.875,1.875a.939.939,0,0,0,1.326,0l3.75-3.75A.938.938,0,0,0,135.249,320.283Z" transform="translate(-128.024 -320.008)"/></g><g transform="translate(77.125 13.125)"><path class="a" d="M292.688,224h-3.75a.938.938,0,0,0,0,1.875h3.75a.938.938,0,0,0,0-1.875Z" transform="translate(-288 -224)"/></g><g transform="translate(77.125 20.625)"><path class="a" d="M292.688,352h-3.75a.938.938,0,0,0,0,1.875h3.75a.938.938,0,0,0,0-1.875Z" transform="translate(-288 -352)"/></g><g transform="translate(64)"><path class="a" d="M84.625,3.75h-3.75V2.813a.938.938,0,0,0-.937-.937H77.9a2.815,2.815,0,0,0-5.306,0H70.563a.938.938,0,0,0-.937.938V3.75h-3.75A1.878,1.878,0,0,0,64,5.625v22.5A1.878,1.878,0,0,0,65.875,30h18.75A1.878,1.878,0,0,0,86.5,28.125V5.625A1.878,1.878,0,0,0,84.625,3.75ZM71.5,3.75h1.875a.938.938,0,0,0,.938-.937.938.938,0,0,1,1.875,0,.938.938,0,0,0,.938.938H79V5.625H71.5ZM84.625,28.125H65.875V5.625h3.75v.938a.938.938,0,0,0,.938.938h9.375a.938.938,0,0,0,.938-.937V5.625h3.75Z" transform="translate(-64)"/></g></g></svg>