<svg xmlns="http://www.w3.org/2000/svg" width="22.148" height="18" viewBox="0 0 22.148 18"><defs><style>.a{fill:#fff;}</style></defs><path class="a" d="M7.047,14.176A12.841,12.841,0,0,0,19.976,1.247q0-.295-.013-.587A9.247,9.247,0,0,0,22.23-1.694a9.066,9.066,0,0,1-2.609.716,4.561,4.561,0,0,0,2-2.513,9.114,9.114,0,0,1-2.885,1.1A4.546,4.546,0,0,0,10.872.719a4.54,4.54,0,0,0,.118,1.036A12.9,12.9,0,0,1,1.623-2.992,4.533,4.533,0,0,0,1.008-.708,4.54,4.54,0,0,0,3.03,3.074,4.509,4.509,0,0,1,.972,2.506c0,.019,0,.038,0,.058A4.545,4.545,0,0,0,4.617,7.018a4.561,4.561,0,0,1-1.2.16A4.516,4.516,0,0,1,2.565,7.1,4.549,4.549,0,0,0,6.81,10.252,9.116,9.116,0,0,1,1.166,12.2a9.248,9.248,0,0,1-1.084-.063,12.863,12.863,0,0,0,6.966,2.041" transform="translate(-0.082 3.824)"/></svg>