<svg xmlns="http://www.w3.org/2000/svg" width="25.577" height="18" viewBox="0 0 25.577 18"><defs><style>.a{fill:#fff;}</style></defs><g transform="translate(-2.491 -39.921)"><path class="a" d="M24.58,47.462c-.923-1.1-2.628-1.545-5.883-1.545H6.88c-3.33,0-5.063.477-5.983,1.645C0,48.7,0,50.38,0,52.7v4.428c0,4.5,1.064,6.786,6.88,6.786H18.7c2.823,0,4.387-.4,5.4-1.364,1.038-.993,1.481-2.615,1.481-5.422V52.7C25.577,50.253,25.507,48.565,24.58,47.462Zm-8.16,8.066-5.366,2.8A.825.825,0,0,1,9.847,57.6V52.011a.825.825,0,0,1,1.205-.732l5.366,2.786a.825.825,0,0,1,0,1.463Z" transform="translate(2.491 -5.996)"/></g></svg>